<svg xmlns="http://www.w3.org/2000/svg" viewBox="0 0 300 103"><defs><style>.a{fill:#e60000;}.b{fill:#5a5a5a;}</style></defs><polygon class="a" points="93.19 94.19 84.69 94.19 84.68 85.69 93.19 85.69 93.19 94.19"/><polygon class="a" points="71.02 94.19 71.03 102.7 79.53 102.7 79.53 94.19 71.02 94.19"/><polygon class="a" points="65.87 94.19 57.38 94.19 57.37 85.69 65.87 85.69 65.87 94.19"/><polygon class="a" points="43.71 94.19 43.72 102.7 52.22 102.7 52.22 94.19 43.71 94.19"/><polygon class="a" points="30.06 94.19 30.07 102.7 38.56 102.7 38.56 94.19 30.06 94.19"/><polygon class="a" points="11.25 94.19 2.75 94.19 2.74 85.69 11.25 85.69 11.25 94.19"/><polygon class="a" points="24.91 94.19 16.41 94.19 16.4 85.69 24.91 85.69 24.91 94.19"/><path class="a" d="M300,8.24V4.69h-4.25V.3h-4.33V4.69h-3V8.24h3v7.84a10.86,10.86,0,0,0,.23,2.34,4.87,4.87,0,0,0,.86,1.94,4.25,4.25,0,0,0,1.71,1.33,6.92,6.92,0,0,0,2.79.48,10,10,0,0,0,1.5-.12,7.1,7.1,0,0,0,1.36-.34l.05,0-.15-3.5-.1,0a4.23,4.23,0,0,1-.87.26,5,5,0,0,1-.91.09c-.9,0-1.49-.24-1.75-.7a3.89,3.89,0,0,1-.39-1.84V8.24Z"/><path class="a" d="M220.62,11.48a4.12,4.12,0,0,1,1.43-2.81,4.69,4.69,0,0,1,3.19-1.14,4.44,4.44,0,0,1,1.75.33,3.62,3.62,0,0,1,1.23.88,3.57,3.57,0,0,1,.71,1.28,5.11,5.11,0,0,1,.22,1.46ZM231.2,6.53a7.23,7.23,0,0,0-2.63-1.75,9,9,0,0,0-3.3-.59,9.78,9.78,0,0,0-3.58.66,8.62,8.62,0,0,0-2.87,1.86,8.43,8.43,0,0,0-1.91,2.89,9.72,9.72,0,0,0-.7,3.76,9.55,9.55,0,0,0,.7,3.76,8,8,0,0,0,1.93,2.81,8.68,8.68,0,0,0,2.9,1.76,10.42,10.42,0,0,0,3.68.63,8.61,8.61,0,0,0,7.34-3.43l.05-.06-3-2.37,0,.07A4.92,4.92,0,0,1,228,18.12a5.64,5.64,0,0,1-2.65.57,4.87,4.87,0,0,1-1.74-.31,5.28,5.28,0,0,1-1.5-.86,4.22,4.22,0,0,1-1.06-1.28,4.1,4.1,0,0,1-.46-1.56h12.89v-.07a5.65,5.65,0,0,0,0-.58v-.56a11.78,11.78,0,0,0-.63-4,8.26,8.26,0,0,0-1.73-2.9"/><path class="a" d="M205.73,9.59a4.29,4.29,0,0,1,1.44-1.23,4.2,4.2,0,0,1,2-.47,4.53,4.53,0,0,1,2,.47,3.64,3.64,0,0,1,1.46,1.16l0,.07,3-2.61.06-.05,0,0a6.88,6.88,0,0,0-2.81-2,9.81,9.81,0,0,0-7.2-.07,8.82,8.82,0,0,0-2.91,1.81,8.67,8.67,0,0,0-2,2.86,9.23,9.23,0,0,0-.73,3.75,9.42,9.42,0,0,0,.73,3.81,8.57,8.57,0,0,0,2,2.86,8.46,8.46,0,0,0,3,1.78,10.64,10.64,0,0,0,3.58.61,10,10,0,0,0,3.58-.63,7.18,7.18,0,0,0,2.74-1.77l0-.05L213,17.13l-.06-.07,0,.07a3.77,3.77,0,0,1-1.57,1.11,5.37,5.37,0,0,1-2,.38,4.35,4.35,0,0,1-2.06-.47,4.44,4.44,0,0,1-1.48-1.23,5.63,5.63,0,0,1-.89-1.72,6.54,6.54,0,0,1-.3-1.94,7.18,7.18,0,0,1,.28-1.95,5.55,5.55,0,0,1,.86-1.72"/><path class="a" d="M266.09,6.34a5.73,5.73,0,0,0-2-1.55,6.41,6.41,0,0,0-2.88-.6A5.86,5.86,0,0,0,256,7.29V4.69h-4.18V21.82h4.4V12.41a5.85,5.85,0,0,1,.24-1.66,4.51,4.51,0,0,1,.71-1.44,3.75,3.75,0,0,1,1.2-1,3.59,3.59,0,0,1,1.73-.39,2.75,2.75,0,0,1,1.6.41,2.87,2.87,0,0,1,.94,1,4,4,0,0,1,.46,1.44,12,12,0,0,1,.1,1.55v9.48h4.4V11.13a9.71,9.71,0,0,0-.35-2.57,6.48,6.48,0,0,0-1.13-2.22"/><path class="a" d="M241,8a4,4,0,0,1,1.84-.41,4.28,4.28,0,0,1,2.12.53,4.9,4.9,0,0,1,1.53,1.27l0,.07,2.88-2.55,0-.06a6.17,6.17,0,0,0-2.82-2,10.42,10.42,0,0,0-3.61-.65,10,10,0,0,0-2.5.32,7.22,7.22,0,0,0-2.18,1,5.09,5.09,0,0,0-1.56,1.7,4.92,4.92,0,0,0-.59,2.48,4.35,4.35,0,0,0,.43,2.05,4.11,4.11,0,0,0,1.15,1.39,6.43,6.43,0,0,0,1.63.9,14.4,14.4,0,0,0,1.87.55,15.74,15.74,0,0,1,2.9.91,1.5,1.5,0,0,1,.93,1.45,1.62,1.62,0,0,1-.24.91,1.87,1.87,0,0,1-.62.6,2.93,2.93,0,0,1-.87.32,4.2,4.2,0,0,1-.92.11,5.24,5.24,0,0,1-2.47-.59,5.74,5.74,0,0,1-1.82-1.5l-.05-.07-2.91,2.73.05.06a8.23,8.23,0,0,0,3.14,2.08,10.66,10.66,0,0,0,3.89.74,11.84,11.84,0,0,0,2.68-.31,6.59,6.59,0,0,0,2.29-1,5.06,5.06,0,0,0,1.59-1.78,5.63,5.63,0,0,0,.59-2.67,4.25,4.25,0,0,0-.51-2.15A4.73,4.73,0,0,0,247.51,13a7.47,7.47,0,0,0-1.79-1,16.66,16.66,0,0,0-1.93-.56,16.72,16.72,0,0,1-2.73-.83,1.34,1.34,0,0,1-.89-1.33A1.37,1.37,0,0,1,241,8"/><path class="a" d="M274.37,11.48a4.12,4.12,0,0,1,1.43-2.81A4.69,4.69,0,0,1,279,7.53a4.44,4.44,0,0,1,1.75.33,3.62,3.62,0,0,1,1.23.88,3.57,3.57,0,0,1,.71,1.28,5.11,5.11,0,0,1,.22,1.46ZM285,6.53a7.23,7.23,0,0,0-2.63-1.75,9.09,9.09,0,0,0-3.3-.59,9.82,9.82,0,0,0-3.58.66,8.62,8.62,0,0,0-2.87,1.86,8.43,8.43,0,0,0-1.91,2.89,9.91,9.91,0,0,0-.7,3.76,9.73,9.73,0,0,0,.7,3.76,8,8,0,0,0,1.93,2.81,8.62,8.62,0,0,0,2.91,1.76,10.3,10.3,0,0,0,3.66.63,8.62,8.62,0,0,0,7.35-3.43l.05-.06-3-2.37-.05.07a5,5,0,0,1-1.77,1.59,5.64,5.64,0,0,1-2.65.57,4.87,4.87,0,0,1-1.74-.31,5.28,5.28,0,0,1-1.5-.86,4.09,4.09,0,0,1-1.52-2.84h12.89v-.07a5.63,5.63,0,0,0,0-.58v-.56a11.79,11.79,0,0,0-.62-4A8.26,8.26,0,0,0,285,6.53"/><path class="b" d="M170.54,61.81a5.3,5.3,0,0,0-3.86,1.57,5.08,5.08,0,0,0-1.61,3.76,4.72,4.72,0,0,0,.45,2,4.91,4.91,0,0,0,1.19,1.64,6,6,0,0,0,1.74,1.1,5.48,5.48,0,0,0,2.09.41,5.37,5.37,0,0,0,3.86-1.57A5.08,5.08,0,0,0,176,67a4.83,4.83,0,0,0-1.64-3.69,5.48,5.48,0,0,0-3.82-1.5M153.77,61a12.27,12.27,0,0,1-2.57,4.07,12.13,12.13,0,0,1-8.8,3.69,12.41,12.41,0,0,1-5.12-1,10.86,10.86,0,0,1-3.8-2.72,12.21,12.21,0,0,1-2.35-4.1,15.78,15.78,0,0,1,0-10,12.11,12.11,0,0,1,2.35-4.1,11.25,11.25,0,0,1,3.8-2.77,12.25,12.25,0,0,1,5.12-1,12.07,12.07,0,0,1,4.91,1,11.8,11.8,0,0,1,3.89,2.73,12.61,12.61,0,0,1,2.57,4.1,14.51,14.51,0,0,1,0,10.17m.37-15.53H154a13.14,13.14,0,0,0-5.32-4.75,15.22,15.22,0,0,0-6.76-1.6,17.07,17.07,0,0,0-6.8,1.3A15.41,15.41,0,0,0,129.93,44a15.91,15.91,0,0,0-3.34,5.32,18.89,18.89,0,0,0,0,13.25,16.06,16.06,0,0,0,3.34,5.33,15.71,15.71,0,0,0,5.19,3.55,17.25,17.25,0,0,0,6.8,1.3,15.59,15.59,0,0,0,6.76-1.57A13.12,13.12,0,0,0,154,66.52h.14v5.4h4.64V20.29h-4.64Zm-36.72-21.1a3.28,3.28,0,0,0-2.26.92,3.23,3.23,0,0,0,0,4.71,3.22,3.22,0,0,0,4.51,0,3.23,3.23,0,0,0,0-4.71,3.27,3.27,0,0,0-2.25-.92M220.59,65.22l17.75-18.84V39.14H211.71v6.55h16.87l-17.69,19v7.24h28.27v-6.7ZM189.93,48.36a8.69,8.69,0,0,1,2.84-2.43,8.21,8.21,0,0,1,4-.92,9,9,0,0,1,3.89.92,7.34,7.34,0,0,1,2.87,2.29l5.6-4.92a13.26,13.26,0,0,0-5.36-3.75,19,19,0,0,0-13.8-.14,16.88,16.88,0,0,0-5.56,3.48,16.4,16.4,0,0,0-3.79,5.47,17.64,17.64,0,0,0-1.4,7.17,18,18,0,0,0,1.4,7.3,15.95,15.95,0,0,0,9.49,8.88,20,20,0,0,0,6.86,1.16,19.43,19.43,0,0,0,6.86-1.19A13.61,13.61,0,0,0,209,68.3l-5.12-5.19a7.35,7.35,0,0,1-3.08,2.18A10.38,10.38,0,0,1,197,66a8.45,8.45,0,0,1-4.06-.92A8.9,8.9,0,0,1,190,62.7a10.73,10.73,0,0,1-1.74-3.38,13,13,0,0,1-.58-3.79,13.27,13.27,0,0,1,.55-3.79,10.38,10.38,0,0,1,1.67-3.38M115.09,71.92h4.65V40h-4.65ZM62.94,59.32A10.58,10.58,0,0,1,61,62.7a9.79,9.79,0,0,1-3,2.42A8.58,8.58,0,0,1,54,66a8.73,8.73,0,0,1-4.17-1,9.18,9.18,0,0,1-2.94-2.46,10.62,10.62,0,0,1-1.74-3.42,12.93,12.93,0,0,1-.58-3.82,12.68,12.68,0,0,1,.58-3.79,10.73,10.73,0,0,1,1.74-3.38,8.71,8.71,0,0,1,2.94-2.42A8.85,8.85,0,0,1,54,44.87a8.36,8.36,0,0,1,4,1,10.37,10.37,0,0,1,3,2.46,10.52,10.52,0,0,1,1.92,3.41,11.94,11.94,0,0,1,.65,3.83,11.62,11.62,0,0,1-.65,3.79m.37-16h-.2a14,14,0,0,0-1.57-1.7A12.11,12.11,0,0,0,59.25,40a14.92,14.92,0,0,0-3.11-1.27,14.6,14.6,0,0,0-4-.51,15.5,15.5,0,0,0-6.42,1.33,15.29,15.29,0,0,0-5,3.66,16.41,16.41,0,0,0-3.28,5.46,19.43,19.43,0,0,0-1.16,6.76,20,20,0,0,0,1.13,6.8,16.68,16.68,0,0,0,3.21,5.53,15.29,15.29,0,0,0,5.05,3.75,15.49,15.49,0,0,0,6.73,1.4,14.55,14.55,0,0,0,6.52-1.5A11.21,11.21,0,0,0,63.59,67h.13v4.92h7.79V20.29h-8.2ZM100,57.17a11.24,11.24,0,0,1-.47,3.24,9,9,0,0,1-1.4,2.83,7.27,7.27,0,0,1-2.39,2,7.11,7.11,0,0,1-3.38.78,5.51,5.51,0,0,1-3.18-.82,5.78,5.78,0,0,1-1.88-2.08,8.09,8.09,0,0,1-.88-2.83,22.76,22.76,0,0,1-.21-3V39.14H78V59.62a17.61,17.61,0,0,0,.68,4.92,12,12,0,0,0,2.15,4.24,11,11,0,0,0,3.76,3,12.3,12.3,0,0,0,5.49,1.12A10.85,10.85,0,0,0,96.48,71a10.56,10.56,0,0,0,3.79-4.33h.13v5.26h7.79V39.14H100ZM8.2,52.25A8.07,8.07,0,0,1,11,46.55a9.2,9.2,0,0,1,6.25-2.22,8.36,8.36,0,0,1,3.45.65,6.78,6.78,0,0,1,2.42,1.74,6.93,6.93,0,0,1,1.4,2.52,10.34,10.34,0,0,1,.45,3Zm20.48-9.6a13.61,13.61,0,0,0-5-3.34,17.32,17.32,0,0,0-6.32-1.13,18.47,18.47,0,0,0-6.86,1.26,16.15,16.15,0,0,0-9.15,9.09A18.92,18.92,0,0,0,0,55.73a18.65,18.65,0,0,0,1.33,7.21A15.28,15.28,0,0,0,5,68.3a16.51,16.51,0,0,0,5.57,3.38,20.1,20.1,0,0,0,7,1.19q9.22,0,14.07-6.55L26.22,62a9.81,9.81,0,0,1-3.48,3.11,11.06,11.06,0,0,1-5.19,1.12,9.62,9.62,0,0,1-3.41-.61,10.27,10.27,0,0,1-2.94-1.68,8.16,8.16,0,0,1-2.08-2.52,7.85,7.85,0,0,1-.92-3.25H33.12A9.81,9.81,0,0,0,33.19,57V55.94A22.7,22.7,0,0,0,32,48.19a15.46,15.46,0,0,0-3.31-5.54"/></svg>