<svg xmlns="http://www.w3.org/2000/svg" viewBox="0 0 267 69"><defs><style>.a{fill:#fff;}</style></defs><path class="a" d="M150.12,58.51c-6.64,0-11.19-5.15-11.19-11.53s4.55-11.63,11.19-11.63S161.3,40.6,161.3,47s-4.54,11.53-11.18,11.53m0-33.64c-12.85,0-22.55,9.87-22.55,22.11s9.7,22,22.55,22,22.54-9.79,22.54-22S163,24.87,150.12,24.87m-46,0a18.69,18.69,0,0,0-12,4.28V25.74H81.26V68.12H92.62V40.6a13.54,13.54,0,0,1,10.31-5.25,8.94,8.94,0,0,1,6.38,2.36c1.58,1.58,2.54,3.76,2.54,8V68.12h11.36V46.54c0-7.25-1.58-11.54-4.37-14.86a19.12,19.12,0,0,0-14.68-6.81M60.73,30V25.74H49.81V68.12H61.17V41.47a12.57,12.57,0,0,1,10.31-6.12,15.91,15.91,0,0,1,4.11.44L76.9,25.22a22.73,22.73,0,0,0-3.85-.35c-5.15,0-9.79,2-12.32,5.15M31.46,54.93c-1.49,1.66-3.76,2.71-7.87,2.71H11.8V41H23.59c4.11,0,6.38,1,7.87,2.7a8.27,8.27,0,0,1,0,11.19M11.8,17.44h8.3c3.67,0,5.33.87,6.55,2.19a6.32,6.32,0,0,1,0,8.73c-1.22,1.31-2.88,2.19-6.55,2.19H11.8ZM36.26,33.78A15.91,15.91,0,0,0,40.2,23.56a16.31,16.31,0,0,0-5.68-12.32C31.55,8.61,27.7,7,20.8,7H0V68.13H23.86c7.86,0,12.58-2.1,16-5.51a18.47,18.47,0,0,0,5.59-13.2,17.49,17.49,0,0,0-9.18-15.64M248.87,48.11c-3.7,4.64-9.09,7.39-17,7.39h-1.67V11.94h1.67c7.86,0,13.25,2.75,17,7.39a23.09,23.09,0,0,1,4.82,14.39,23.11,23.11,0,0,1-4.82,14.39m4.45-41.28C247.92,2.85,241,.58,230.5.58h-13V66.86h13c10.51,0,17.42-2.27,22.82-6.25a33.3,33.3,0,0,0,13.16-26.89A33.3,33.3,0,0,0,253.32,6.83m-66,60h12.31l4.68-32.62H192Zm12-64.7A8,8,0,0,0,191,10.3a8,8,0,0,0,8.24,8.05,8.1,8.1,0,1,0,0-16.19"/></svg>