<svg xmlns="http://www.w3.org/2000/svg" viewBox="0 0 195 60"><defs><style>.a{fill:#fff;}</style></defs><polygon class="a" points="101 19.5 101 10.9 98.3 16.4 96.3 16.4 93.6 10.9 93.6 19.5 90.9 19.5 90.9 4.7 93.6 4.7 97.1 12.9 101 4.7 103.7 4.7 103.7 19.5 101 19.5"/><path class="a" d="M113.9,8.2c-.4-.8-.8-.8-1.6-.8s-1.6,0-1.9.8c-.8.4-.8,1.2-.8,3.9s0,3.5.8,4.3a3,3,0,0,0,1.9.8,2.08,2.08,0,0,0,1.6-.8c.8-.8.8-1.6.8-4.3S114.6,8.6,113.9,8.2Zm2.3,9.7a4.93,4.93,0,0,1-3.9,1.6,5.38,5.38,0,0,1-4.3-1.6c-1.2-1.6-1.2-3.1-1.2-5.8,0-2.3,0-4.3,1.2-5.8a7,7,0,0,1,4.3-1.6,6.81,6.81,0,0,1,3.9,1.6c1.2,1.6,1.2,3.5,1.2,5.8C117.4,14.8,117.4,16.4,116.2,17.9Z"/><path class="a" d="M125.9,7.4h-2.7v3.9h2.7a1.78,1.78,0,0,0,1.9-1.9A1.86,1.86,0,0,0,125.9,7.4Zm2.4,12.1-3.1-5.8h-1.9v5.8h-2.7V4.7h5.5a4.86,4.86,0,0,1,5.1,4.7c0,1.9-1.6,3.1-2.7,3.9l3.1,6.2Z"/><path class="a" d="M138.8,9l-1.9,5.5h3.5Zm3.1,10.5-.8-2.7H136l-.8,2.7h-3.1l5.5-14.8h1.9L145,19.5Z"/><polygon class="a" points="151.3 19.5 149.3 19.5 144.6 4.7 147.4 4.7 150.5 14.4 153.2 4.7 156.3 4.7 151.3 19.5"/><path class="a" d="M162.2,19.5a7.16,7.16,0,0,1-5.5-1.9l1.9-1.9a3.73,3.73,0,0,0,3.5,1.6c1.6,0,2.3-.8,2.3-1.9a1.47,1.47,0,0,0-.4-1.2c-.4-.4-.4-.4-1.2-.4l-1.9-.4a17.79,17.79,0,0,1-2.7-1.2A3.85,3.85,0,0,1,157,9.1c0-2.3,1.9-4.3,5.1-4.3,2.3,0,3.5.4,4.7,1.9l-1.6,1.6a4.55,4.55,0,0,0-3.1-.8c-1.6,0-2.3.8-2.3,1.6,0,.4.4.8.4,1.2.4.4.8.4,1.6.4l1.6.4c1.6,0,2.3.4,2.7,1.2a4.3,4.3,0,0,1,1.2,3.1C167.2,17.9,164.9,19.5,162.2,19.5Z"/><polygon class="a" points="178.5 19.5 174.6 12.9 173.1 15.2 173.1 19.5 170 19.5 170 4.7 173.1 4.7 173.1 11.3 178.1 4.7 181.7 4.7 176.6 10.5 181.7 19.5 178.5 19.5"/><polygon class="a" points="89.7 39.7 89.7 37.4 95.9 27.7 90.1 27.7 90.1 25.3 99.4 25.3 99.4 27.3 93.2 37 99.4 37 99.4 39.7 89.7 39.7"/><polygon class="a" points="101.8 39.7 101.8 25.3 111.5 25.3 111.5 27.7 104.9 27.7 104.9 31.2 110.4 31.2 110.4 33.5 104.9 33.5 104.9 37 111.5 37 111.5 39.7 101.8 39.7"/><polygon class="a" points="124.8 39.7 124.8 31.2 121.7 36.6 119.7 36.6 117 31.2 117 39.7 114.3 39.7 114.3 25.3 117 25.3 120.9 33.1 124.8 25.3 127.5 25.3 127.5 39.7 124.8 39.7"/><path class="a" d="M134.9,39.7a7.16,7.16,0,0,1-5.5-1.9l1.9-1.6a4.64,4.64,0,0,0,3.5,1.2c1.6,0,2.7-.8,2.7-1.9,0-.4-.4-.8-.8-1.2,0-.4-.4-.4-1.2-.4l-1.6-.4a12.45,12.45,0,0,1-3.1-1.2,5.72,5.72,0,0,1-.8-2.7c0-2.7,1.9-4.7,5.1-4.7a5.49,5.49,0,0,1,4.7,1.9l-1.9,1.6c-.8-.8-1.9-.8-3.1-.8a1.73,1.73,0,0,0-1.9,1.6,1.41,1.41,0,0,0,1.6,1.6l1.9.4c1.2.4,1.9.4,2.7,1.2a4.3,4.3,0,0,1,1.2,3.1C140.4,38.2,138,39.7,134.9,39.7Z"/><polygon class="a" points="151.3 39.7 147.8 33.1 145.8 35.5 145.8 39.7 143.1 39.7 143.1 25.3 145.8 25.3 145.8 31.6 150.9 25.3 154.4 25.3 149.3 30.8 154.8 39.7 151.3 39.7"/><path class="a" d="M161.8,23.8h-1.6l1.2-3.5h2.7Zm-.4,5.8-1.9,5.1h3.9Zm3.5,10.1L163.7,37h-5.1l-.8,2.7h-3.1l5.5-14.4h2.3l5.1,14.4Z"/><polygon class="a" points="99.1 60 95.6 53.4 93.6 55.7 93.6 60 90.9 60 90.9 45.6 93.6 45.6 93.6 51.8 98.7 45.6 102.2 45.6 97.1 51 102.6 60 99.1 60"/><polygon class="a" points="112.7 60 107.2 51 107.2 60 104.1 60 104.1 45.6 106.9 45.6 112.7 54.2 112.7 45.6 115.4 45.6 115.4 60 112.7 60"/><polygon class="a" points="118.9 60 121.7 60 121.7 45.6 118.9 45.6 118.9 60"/><polygon class="a" points="133 60 133 53.8 127.9 53.8 127.9 60 125.2 60 125.2 45.6 127.9 45.6 127.9 51.4 133 51.4 133 45.6 135.7 45.6 135.7 60 133 60"/><path class="a" d="M145.8,48.7a3,3,0,0,0-1.9-.8,2.79,2.79,0,0,0-1.9.8c-.4.4-.4,1.2-.4,3.9s0,3.5.4,4.3a3,3,0,0,0,1.9.8,2.79,2.79,0,0,0,1.9-.8c.4-.8.8-1.6.8-4.3S146.2,49.1,145.8,48.7Zm2,9.7a4.45,4.45,0,0,1-3.9,1.6,4.93,4.93,0,0,1-3.9-1.6c-1.6-1.6-1.6-3.1-1.6-5.8,0-2.3,0-4.3,1.6-5.8a6.81,6.81,0,0,1,3.9-1.6,5.84,5.84,0,0,1,3.9,1.6c1.6,1.6,1.6,3.5,1.6,5.8C149.3,55.3,149.3,56.9,147.8,58.4Z"/><polygon class="a" points="157.1 60 155.2 60 150.5 45.6 153.2 45.6 156.3 54.9 159.1 45.6 162.2 45.6 157.1 60"/><polygon class="a" points="172.3 60 166.9 51 166.9 60 163.7 60 163.7 45.6 166.5 45.6 172.3 54.2 172.3 45.6 175 45.6 175 60 172.3 60"/><path class="a" d="M183.2,49.9,181.3,55h3.9ZM186.7,60l-.8-2.7h-5.5l-.8,2.7H177l5.1-14.4h2.3L189.5,60Z"/><polygon class="a" points="78 5.1 78 5.1 67.1 5.1 67.1 60 78 60 78 5.1"/><polygon class="a" points="0.1 5.1 0.1 60 11 60 11 5.1 0.1 5.1"/><polygon class="a" points="49.6 5.1 14.5 60 26.2 60 61.7 5.1 49.6 5.1"/><path class="a" d="M189.1,3.5h-1.9L188.8,0h2.7ZM188.7,9l-1.9,5.5h3.5Zm3.1,10.5-.8-2.7h-5.1l-.8,2.7H182l5.5-14.8h1.9l5.5,14.8Z"/></svg>