<?xml version="1.0" encoding="utf-8"?>
<svg version="1.1" id="Layer_1" xmlns="http://www.w3.org/2000/svg" xmlns:xlink="http://www.w3.org/1999/xlink" x="0px" y="0px"
	 viewBox="0 0 195 60" style="enable-background:new 0 0 195 60;" xml:space="preserve">
<style type="text/css">
	.st0{fill:#2EB8C5;}
</style>
<g id="Vrstva_x0020_1">
	<polygon class="st0" points="101,19.5 101,10.9 98.3,16.4 96.3,16.4 93.6,10.9 93.6,19.5 90.9,19.5 90.9,4.7 93.6,4.7 97.1,12.9
		101,4.7 103.7,4.7 103.7,19.5 	"/>
	<path class="st0" d="M113.9,8.2c-0.4-0.8-0.8-0.8-1.6-0.8c-0.8,0-1.6,0-1.9,0.8c-0.8,0.4-0.8,1.2-0.8,3.9s0,3.5,0.8,4.3
		c0.4,0.4,1.2,0.8,1.9,0.8c0.8,0,1.2-0.4,1.6-0.8c0.8-0.8,0.8-1.6,0.8-4.3S114.6,8.6,113.9,8.2z M116.2,17.9
		c-1.2,1.2-2.3,1.6-3.9,1.6c-1.9,0-3.1-0.4-4.3-1.6c-1.2-1.6-1.2-3.1-1.2-5.8c0-2.3,0-4.3,1.2-5.8c1.2-0.8,2.3-1.6,4.3-1.6
		c1.6,0,2.7,0.8,3.9,1.6c1.2,1.6,1.2,3.5,1.2,5.8C117.4,14.8,117.4,16.4,116.2,17.9z"/>
	<path class="st0" d="M125.9,7.4h-2.7v3.9h2.7c1.2,0,1.9-0.8,1.9-1.9S127.1,7.4,125.9,7.4z M128.3,19.5l-3.1-5.8h-1.9v5.8h-2.7V4.7
		h5.5c3.1,0,5.1,2.3,5.1,4.7c0,1.9-1.6,3.1-2.7,3.9l3.1,6.2H128.3z"/>
	<path class="st0" d="M138.8,9l-1.9,5.5h3.5L138.8,9z M141.9,19.5l-0.8-2.7h-5.1l-0.8,2.7h-3.1l5.5-14.8h1.9l5.5,14.8H141.9z"/>
	<polygon class="st0" points="151.3,19.5 149.3,19.5 144.6,4.7 147.4,4.7 150.5,14.4 153.2,4.7 156.3,4.7 	"/>
	<path class="st0" d="M162.2,19.5c-2.3,0-3.9-0.4-5.5-1.9l1.9-1.9c0.8,1.2,1.9,1.6,3.5,1.6s2.3-0.8,2.3-1.9c0-0.4,0-0.8-0.4-1.2
		c-0.4-0.4-0.4-0.4-1.2-0.4l-1.9-0.4c-1.2-0.4-1.9-0.8-2.7-1.2c-0.8-0.8-1.2-1.6-1.2-3.1c0-2.3,1.9-4.3,5.1-4.3
		c2.3,0,3.5,0.4,4.7,1.9l-1.6,1.6c-1.2-0.8-1.9-0.8-3.1-0.8c-1.6,0-2.3,0.8-2.3,1.6c0,0.4,0.4,0.8,0.4,1.2c0.4,0.4,0.8,0.4,1.6,0.4
		l1.6,0.4c1.6,0,2.3,0.4,2.7,1.2c0.8,0.8,1.2,1.9,1.2,3.1C167.2,17.9,164.9,19.5,162.2,19.5z"/>
	<polygon class="st0" points="178.5,19.5 174.6,12.9 173.1,15.2 173.1,19.5 170,19.5 170,4.7 173.1,4.7 173.1,11.3 178.1,4.7
		181.7,4.7 176.6,10.5 181.7,19.5 	"/>
	<polygon class="st0" points="89.7,39.7 89.7,37.4 95.9,27.7 90.1,27.7 90.1,25.3 99.4,25.3 99.4,27.3 93.2,37 99.4,37 99.4,39.7
		"/>
	<polygon class="st0" points="101.8,39.7 101.8,25.3 111.5,25.3 111.5,27.7 104.9,27.7 104.9,31.2 110.4,31.2 110.4,33.5
		104.9,33.5 104.9,37 111.5,37 111.5,39.7 	"/>
	<polygon class="st0" points="124.8,39.7 124.8,31.2 121.7,36.6 119.7,36.6 117,31.2 117,39.7 114.3,39.7 114.3,25.3 117,25.3
		120.9,33.1 124.8,25.3 127.5,25.3 127.5,39.7 	"/>
	<path class="st0" d="M134.9,39.7c-2.3,0-3.9-0.4-5.5-1.9l1.9-1.6c0.8,0.8,1.9,1.2,3.5,1.2s2.7-0.8,2.7-1.9c0-0.4-0.4-0.8-0.8-1.2
		c0-0.4-0.4-0.4-1.2-0.4l-1.6-0.4c-1.6-0.4-2.3-0.8-3.1-1.2c-0.4-0.8-0.8-1.6-0.8-2.7c0-2.7,1.9-4.7,5.1-4.7c1.9,0,3.5,0.4,4.7,1.9
		l-1.9,1.6c-0.8-0.8-1.9-0.8-3.1-0.8c-1.2,0-1.9,0.8-1.9,1.6c0,0.4,0,0.8,0.4,1.2c0.4,0.4,0.8,0.4,1.2,0.4l1.9,0.4
		c1.2,0.4,1.9,0.4,2.7,1.2s1.2,1.9,1.2,3.1C140.4,38.2,138,39.7,134.9,39.7z"/>
	<polygon class="st0" points="151.3,39.7 147.8,33.1 145.8,35.5 145.8,39.7 143.1,39.7 143.1,25.3 145.8,25.3 145.8,31.6
		150.9,25.3 154.4,25.3 149.3,30.8 154.8,39.7 	"/>
	<path class="st0" d="M161.8,23.8h-1.6l1.2-3.5h2.7L161.8,23.8z M161.4,29.6l-1.9,5.1h3.9L161.4,29.6z M164.9,39.7l-1.2-2.7h-5.1
		l-0.8,2.7h-3.1l5.5-14.4h2.3l5.1,14.4H164.9z"/>
	<polygon class="st0" points="99.1,60 95.6,53.4 93.6,55.7 93.6,60 90.9,60 90.9,45.6 93.6,45.6 93.6,51.8 98.7,45.6 102.2,45.6
		97.1,51 102.6,60 	"/>
	<polygon class="st0" points="112.7,60 107.2,51 107.2,60 104.1,60 104.1,45.6 106.9,45.6 112.7,54.2 112.7,45.6 115.4,45.6
		115.4,60 	"/>
	<polygon class="st0" points="118.9,60 121.7,60 121.7,45.6 118.9,45.6 	"/>
	<polygon class="st0" points="133,60 133,53.8 127.9,53.8 127.9,60 125.2,60 125.2,45.6 127.9,45.6 127.9,51.4 133,51.4 133,45.6
		135.7,45.6 135.7,60 	"/>
	<path class="st0" d="M145.8,48.7c-0.4-0.4-1.2-0.8-1.9-0.8s-1.6,0.4-1.9,0.8c-0.4,0.4-0.4,1.2-0.4,3.9c0,2.7,0,3.5,0.4,4.3
		c0.4,0.4,1.2,0.8,1.9,0.8s1.6-0.4,1.9-0.8c0.4-0.8,0.8-1.6,0.8-4.3C146.6,49.9,146.2,49.1,145.8,48.7z M147.8,58.4
		c-0.8,1.2-2.3,1.6-3.9,1.6s-2.7-0.4-3.9-1.6c-1.6-1.6-1.6-3.1-1.6-5.8c0-2.3,0-4.3,1.6-5.8c1.2-0.8,2.3-1.6,3.9-1.6
		s3.1,0.8,3.9,1.6c1.6,1.6,1.6,3.5,1.6,5.8C149.3,55.3,149.3,56.9,147.8,58.4z"/>
	<polygon class="st0" points="157.1,60 155.2,60 150.5,45.6 153.2,45.6 156.3,54.9 159.1,45.6 162.2,45.6 	"/>
	<polygon class="st0" points="172.3,60 166.9,51 166.9,60 163.7,60 163.7,45.6 166.5,45.6 172.3,54.2 172.3,45.6 175,45.6 175,60
		"/>
	<path class="st0" d="M183.2,49.9l-1.9,5.1h3.9L183.2,49.9z M186.7,60l-0.8-2.7h-5.5l-0.8,2.7H177l5.1-14.4h2.3l5.1,14.4H186.7z"/>
	<polygon class="st0" points="78,5.1 78,5.1 67.1,5.1 67.1,60 78,60 	"/>
	<polygon class="st0" points="0.1,5.1 0.1,60 11,60 11,5.1 	"/>
	<polygon class="st0" points="49.6,5.1 14.5,60 26.2,60 61.7,5.1 	"/>
	<path class="st0" d="M189.1,3.5h-1.9l1.6-3.5h2.7L189.1,3.5z M188.7,9l-1.9,5.5h3.5L188.7,9z M191.8,19.5l-0.8-2.7h-5.1l-0.8,2.7
		H182l5.5-14.8h1.9l5.5,14.8H191.8z"/>
</g>
</svg>
